<svg width="14" height="18" viewBox="0 0 14 18" fill="none" xmlns="http://www.w3.org/2000/svg">
<path fill-rule="evenodd" clip-rule="evenodd" d="M7 10.2222C4.2386 10.2222 2 12.7096 2 15.7778V18H0V15.7778C0 11.4822 3.134 8 7 8C10.866 8 14 11.4822 14 15.7778V18H12V15.7778C12 12.7096 9.7614 10.2222 7 10.2222Z" fill="white"/>
<path fill-rule="evenodd" clip-rule="evenodd" d="M2 5C2 2.2386 4.2386 0 7 0C9.7614 0 12 2.2386 12 5C12 7.7614 9.7614 10 7 10C4.2386 10 2 7.7614 2 5ZM7 2C5.3431 2 4 3.3431 4 5C4 6.6569 5.3431 8 7 8C8.6569 8 10 6.6569 10 5C10 3.3431 8.6569 2 7 2Z" fill="white"/>
</svg>
