<svg width="24" height="11" viewBox="0 0 24 11" fill="none" xmlns="http://www.w3.org/2000/svg">
<path fill-rule="evenodd" clip-rule="evenodd" d="M3.94995 0.55C3.94995 0.246243 4.19619 0 4.49995 0H11.3475C12.5196 0 13.6756 0.272895 14.7239 0.797074L18.7226 2.79639C19.0345 2.95237 19.3626 3.07374 19.701 3.15834L20.0337 3.24152C20.85 3.44558 21.5954 3.86763 22.1903 4.46255L22.9746 5.24688C23.343 5.61524 23.5499 6.11485 23.5499 6.63579C23.5499 7.72059 22.6705 8.6 21.5857 8.6H21C20.6962 8.6 20.45 8.35376 20.45 8.05C20.45 7.74624 20.6962 7.5 21 7.5H21.5857C22.063 7.5 22.45 7.11308 22.45 6.63579C22.45 6.40658 22.3589 6.18677 22.1968 6.0247L21.4125 5.24037C20.9586 4.78642 20.3898 4.46438 19.767 4.30868L19.4342 4.22549C19.018 4.12143 18.6144 3.97213 18.2306 3.78026L14.232 1.78094C13.3364 1.33314 12.3488 1.1 11.3475 1.1H4.49995C4.19619 1.1 3.94995 0.853757 3.94995 0.55ZM2.38886 2.16109C2.60365 2.37588 2.60365 2.72412 2.38886 2.93891C1.85172 3.47605 1.54995 4.20458 1.54995 4.96421V6.34289C1.54995 6.64978 1.67186 6.94409 1.88886 7.16109C2.10586 7.37809 2.40017 7.5 2.70706 7.5H2.99995C3.30371 7.5 3.54995 7.74624 3.54995 8.05C3.54995 8.35376 3.30371 8.6 2.99995 8.6H2.70706C2.10844 8.6 1.53433 8.3622 1.11104 7.93891C0.687753 7.51562 0.449951 6.94151 0.449951 6.34289V4.96421C0.449951 3.91284 0.867608 2.90453 1.61104 2.16109C1.82583 1.9463 2.17407 1.9463 2.38886 2.16109ZM7.44995 8.05C7.44995 7.74624 7.69619 7.5 7.99995 7.5H16C16.3037 7.5 16.55 7.74624 16.55 8.05C16.55 8.35376 16.3037 8.6 16 8.6H7.99995C7.69619 8.6 7.44995 8.35376 7.44995 8.05Z" fill="white"/>
<path fill-rule="evenodd" clip-rule="evenodd" d="M5.5 9.54999C6.32843 9.54999 7 8.87841 7 8.04999C7 7.22156 6.32843 6.54999 5.5 6.54999C4.67157 6.54999 4 7.22156 4 8.04999C4 8.87841 4.67157 9.54999 5.5 9.54999ZM5.5 10.55C6.88071 10.55 8 9.4307 8 8.04999C8 6.66928 6.88071 5.54999 5.5 5.54999C4.11929 5.54999 3 6.66928 3 8.04999C3 9.4307 4.11929 10.55 5.5 10.55Z" fill="white"/>
<path fill-rule="evenodd" clip-rule="evenodd" d="M18.5 9.54999C19.3284 9.54999 20 8.87841 20 8.04999C20 7.22156 19.3284 6.54999 18.5 6.54999C17.6716 6.54999 17 7.22156 17 8.04999C17 8.87841 17.6716 9.54999 18.5 9.54999ZM18.5 10.55C19.8807 10.55 21 9.4307 21 8.04999C21 6.66928 19.8807 5.54999 18.5 5.54999C17.1193 5.54999 16 6.66928 16 8.04999C16 9.4307 17.1193 10.55 18.5 10.55Z" fill="white"/>
</svg>
