<svg width="18" height="18" viewBox="0 0 18 24" fill="none" xmlns="http://www.w3.org/2000/svg">
<path d="M9 17.3333C11.8363 17.3333 14.1429 14.9413 14.1429 12V5.33333C14.1429 2.392 11.8363 0 9 0C6.16371 0 3.85714 2.392 3.85714 5.33333V12C3.85714 14.9413 6.16371 17.3333 9 17.3333ZM5.14286 5.33333C5.14286 3.128 6.87343 1.33333 9 1.33333C11.1266 1.33333 12.8571 3.128 12.8571 5.33333V12C12.8571 14.2053 11.1266 16 9 16C6.87343 16 5.14286 14.2053 5.14286 12V5.33333Z" fill="white"/>
<path d="M17.3571 11.3333C17.0023 11.3333 16.7143 11.632 16.7143 12C16.7143 16.4107 13.2531 20 9 20C4.74686 20 1.28571 16.4107 1.28571 12C1.28571 11.632 0.997714 11.3333 0.642857 11.3333C0.288 11.3333 0 11.632 0 12C0 16.9227 3.69257 20.9627 8.35714 21.3067V23.3333C8.35714 23.7013 8.64514 24 9 24C9.35486 24 9.64286 23.7013 9.64286 23.3333V21.3067C14.3074 20.9627 18 16.9227 18 12C18 11.632 17.712 11.3333 17.3571 11.3333Z" fill="white"/>
</svg>
