<svg width="15" height="19" viewBox="0 0 15 19" fill="none" xmlns="http://www.w3.org/2000/svg">
<path fill-rule="evenodd" clip-rule="evenodd" d="M7.5001 0C3.5252 0 0.544678 3.1532 0.544678 7.02173C0.544678 9.32435 1.3571 11.3703 2.57613 13.289C3.7935 15.205 5.42314 17.0039 7.06571 18.8094L7.06661 18.8104C7.12188 18.8702 7.18893 18.9179 7.26353 18.9505C7.33813 18.9832 7.41868 19 7.5001 19C7.58153 19 7.66208 18.9832 7.73668 18.9505C7.81128 18.9179 7.87832 18.8702 7.9336 18.8104L7.93449 18.8094C9.57707 17.0039 11.2067 15.205 12.4241 13.289C13.6431 11.3703 14.4555 9.32435 14.4555 7.02173C14.4555 3.1532 11.475 0 7.5001 0ZM1.72529 7.02173C1.72529 3.75834 4.15938 1.18061 7.5001 1.18061C10.8408 1.18061 13.2749 3.75834 13.2749 7.02173C13.2749 8.97299 12.5931 10.7617 11.5124 12.501C10.4586 14.1971 9.03149 15.8372 7.5001 17.5289C5.96872 15.8372 4.54159 14.1971 3.4878 12.501C2.40713 10.7617 1.72529 8.97299 1.72529 7.02173ZM7.86799 3.38229C7.73824 3.36934 7.62938 3.37209 7.55766 3.3739L7.55762 3.3739C7.53767 3.37441 7.52059 3.37484 7.50673 3.37484C5.52616 3.37484 3.88636 4.95147 3.88636 6.92227C3.88636 8.89131 5.52124 10.4962 7.50673 10.4962C9.49317 10.4962 11.1138 8.88716 11.1138 6.92227C11.1138 5.07736 9.68437 3.56355 7.86799 3.38229ZM7.63986 4.55411L7.63998 4.5541L7.66974 4.55363C7.71352 4.553 7.73569 4.55332 7.74884 4.55463C8.98172 4.67766 9.93323 5.69166 9.93323 6.92227C9.93323 8.2384 8.85952 9.31562 7.50673 9.31562C6.15298 9.31562 5.06698 8.23421 5.06698 6.92227C5.06698 5.61244 6.14772 4.55545 7.50673 4.55545C7.5589 4.55545 7.60353 4.55471 7.63986 4.55411Z" fill="white"/>
</svg>
