<svg width="21" height="20" viewBox="0 0 21 20" fill="none" xmlns="http://www.w3.org/2000/svg">
<path d="M19.0778 19.4264C19.3133 19.6595 19.6932 19.6576 19.9264 19.4222C20.1595 19.1867 20.1576 18.8068 19.9222 18.5736L19.0778 19.4264ZM13.7775 7.37513C13.7775 10.559 11.169 13.1503 7.93874 13.1503V14.3503C11.8205 14.3503 14.9775 11.233 14.9775 7.37513H13.7775ZM7.93874 13.1503C4.70846 13.1503 2.1 10.559 2.1 7.37513H0.9C0.9 11.233 4.05698 14.3503 7.93874 14.3503V13.1503ZM2.1 7.37513C2.1 4.19122 4.70846 1.6 7.93874 1.6V0.4C4.05698 0.4 0.9 3.51727 0.9 7.37513H2.1ZM7.93874 1.6C11.169 1.6 13.7775 4.19122 13.7775 7.37513H14.9775C14.9775 3.51727 11.8205 0.4 7.93874 0.4V1.6ZM11.7193 12.1405L19.0778 19.4264L19.9222 18.5736L12.5636 11.2878L11.7193 12.1405Z" fill="white"/>
</svg>
