<svg width="21" height="20" viewBox="0 0 21 20" fill="none" xmlns="http://www.w3.org/2000/svg">
<path fill-rule="evenodd" clip-rule="evenodd" d="M5 14.4C2.95895 14.4 1.30435 16.1759 1.30435 18.3667V19.3C1.30435 19.6866 1.01236 20 0.652174 20C0.291988 20 0 19.6866 0 19.3V18.3667C0 15.4027 2.23858 13.5 5 13.5C7.76142 13.5 10 15.4027 10 18.3667V19.3C10 19.6866 9.70801 20 9.34783 20C8.98764 20 8.69565 19.6866 8.69565 19.3V18.3667C8.69565 16.1759 7.04105 14.4 5 14.4Z" fill="white"/>
<path fill-rule="evenodd" clip-rule="evenodd" d="M5 13C6.10457 13 7 12.1046 7 11C7 9.89543 6.10457 9 5 9C3.89543 9 3 9.89543 3 11C3 12.1046 3.89543 13 5 13ZM5 14C6.65685 14 8 12.6569 8 11C8 9.34315 6.65685 8 5 8C3.34315 8 2 9.34315 2 11C2 12.6569 3.34315 14 5 14Z" fill="white"/>
<path fill-rule="evenodd" clip-rule="evenodd" d="M13 9.99998C13.3077 10.1958 13.0915 10.6844 12.8607 10.9454L11.975 12.3819C11.7442 12.6429 11.3077 12.6958 11 12.5C10.6923 12.3042 10.63 11.9339 10.8608 11.6728L12 9.99999C12.2308 9.73892 12.6923 9.80417 13 9.99998Z" fill="white"/>
<path fill-rule="evenodd" clip-rule="evenodd" d="M20 5.5C20 7.90516 17.8451 10 15 10C14.2078 10 13.4691 9.83759 12.8156 9.5513C12.5925 9.45357 12.3272 9.50438 12.1739 9.69364C11.9781 9.93537 12.0443 10.2962 12.3272 10.4255C13.132 10.7932 14.0397 11 15 11C18.3137 11 21 8.53757 21 5.5C21 2.46243 18.3137 0 15 0C11.6863 0 9 2.46243 9 5.5C9 6.94515 9.60803 8.26012 10.6024 9.24167C10.8008 9.43755 11.1213 9.40443 11.2968 9.18776C11.4689 8.97522 11.4364 8.66569 11.2458 8.46957C10.4641 7.66543 10 6.61613 10 5.5C10 3.09484 12.1549 1 15 1C17.8451 1 20 3.09484 20 5.5Z" fill="white"/>
</svg>
